<svg width="966" height="1059" viewBox="0 0 966 1059" fill="none" xmlns="http://www.w3.org/2000/svg">
<path d="M455.333 1.33344C387.2 5.20007 321.333 22.8001 261.333 53.4668C171.067 99.4668 95.7333 175.333 50.2667 266.133C-9.20001 384.8 -15.7333 528.4 32.9333 651.333C94 805.867 228.4 916.933 392 947.867C423.467 953.733 441.733 955.333 481.333 955.333C519.6 955.2 528.933 954.533 561.333 949.2C619.867 939.6 679.467 917.467 730.667 886.533C785.2 853.467 836.533 805.733 873.733 753.467C912.8 698.8 940.267 634.133 953.2 566.4C962.4 518.133 963.733 458.4 956.533 410C931.333 240.267 817.867 97.3334 658 34.2668C594.667 9.20013 523.2 -2.3999 455.333 1.33344ZM529.333 126.667C529.333 127.333 523.6 151.2 516.533 179.6C509.6 208 500.267 246 495.867 264C491.467 282 487.6 297.733 487.2 298.933C486.533 301.2 488.933 301.333 526 301.333H565.333L564.4 304.933C564 307.067 560.133 322.133 556 338.667L548.533 368.667L509.067 369.067L469.6 369.333L466 383.733C451.067 443.2 433.067 519.2 431.2 530.133C428.667 546.133 429.333 566.933 432.8 576.533C438 591.333 453.467 601.733 473.067 603.467C496 605.6 518.8 592.8 528.4 572.533C530.667 567.6 538.8 537.6 549.867 492.933C559.6 453.6 567.867 420.933 568.267 420.667C568.667 420.267 599.2 420.133 636.133 420.267L703.467 420.667L696.267 450C689.2 478.667 640.8 674.133 617.733 767.467L606.133 814.4L565.467 815.333C543.2 815.867 517.333 816 508 815.733C493.333 815.2 490.4 814.667 485.2 811.867C477.467 807.6 475.733 804 476.4 794C476.8 789.6 483.067 763.2 490.4 735.333C497.867 707.467 504.267 683.067 504.8 681.067L505.6 677.333L495.333 682.133C462 697.467 408.8 700.4 373.867 688.667C315.2 668.933 283.067 614.667 289.333 545.6C291.333 523.333 294.4 508.667 313.467 433.733C322.133 399.067 329.333 370.133 329.333 369.333C329.333 368.533 316.533 368 292.667 368C264.133 368 256 367.6 256 366.267C256.133 362.8 261.067 343.733 262.133 342.8C262.8 342.133 269.067 339.733 276 337.333C293.067 331.2 329.467 312.933 346.933 301.467C408.133 261.6 460.533 207.467 496.4 147.333C508.933 126.133 509.867 125.333 520.667 125.333C525.467 125.333 529.333 125.867 529.333 126.667Z" fill="#DB261E"/>
</svg>
